<svg width="45" height="45" viewBox="0 0 45 45" fill="none" xmlns="http://www.w3.org/2000/svg">
<path d="M12.6664 12C11.0397 12 10.9042 13.6 11.0397 14.4C12.9918 29.12 25.4088 33.6 31.3733 34C32.6747 33.68 33 32.5333 33 32V28C33 26.72 31.9155 26.1333 31.3733 26L28.1199 25.2C26.8186 24.88 25.951 25.6 25.6799 26L24.8666 26.8C24.2159 27.44 23.511 27.0667 23.2399 26.8C20.3932 25.2 18.3598 22.4 17.9531 21.6C17.6278 20.96 17.8176 20.5333 17.9531 20.4L19.1732 19.2C19.8238 18.56 19.7154 17.0667 19.5798 16.4C19.4443 16 19.0918 14.88 18.7665 13.6C18.4411 12.32 17.0042 12 16.3264 12H12.6664Z" fill="#62D4AD"/>
<rect x="1" y="1" width="43" height="43" rx="10" stroke="#62D4AD" stroke-width="2"/>
</svg>
