<svg width="45" height="45" viewBox="0 0 45 45" fill="none" xmlns="http://www.w3.org/2000/svg">
<path d="M22.7415 32.2756C20.7216 32.2756 18.983 31.8665 17.5256 31.0483C16.0767 30.2216 14.9602 29.054 14.1761 27.5455C13.392 26.0284 13 24.2344 13 22.1634C13 20.1435 13.392 18.3707 14.1761 16.8452C14.9602 15.3196 16.0639 14.1307 17.4872 13.2784C18.919 12.4261 20.598 12 22.5241 12C23.8196 12 25.0256 12.2088 26.142 12.6264C27.267 13.0355 28.2472 13.6534 29.0824 14.4801C29.9261 15.3068 30.5824 16.3466 31.0511 17.5994C31.5199 18.8437 31.7543 20.3011 31.7543 21.9716V23.4673H15.1733V20.0923H26.6278C26.6278 19.3082 26.4574 18.6136 26.1165 18.0085C25.7756 17.4034 25.3026 16.9304 24.6974 16.5895C24.1009 16.2401 23.4063 16.0653 22.6136 16.0653C21.7869 16.0653 21.054 16.2571 20.4148 16.6406C19.7841 17.0156 19.2898 17.5227 18.9318 18.1619C18.5739 18.7926 18.3906 19.4957 18.3821 20.2713V23.4801C18.3821 24.4517 18.5611 25.2912 18.919 25.9986C19.2855 26.706 19.8011 27.2514 20.4659 27.6349C21.1307 28.0185 21.919 28.2102 22.831 28.2102C23.4361 28.2102 23.9901 28.125 24.4929 27.9545C24.9957 27.7841 25.4261 27.5284 25.7841 27.1875C26.142 26.8466 26.4148 26.429 26.6023 25.9347L31.6392 26.267C31.3835 27.4773 30.8594 28.5341 30.0668 29.4375C29.2827 30.3324 28.2685 31.0312 27.0241 31.5341C25.7884 32.0284 24.3608 32.2756 22.7415 32.2756Z" fill="#62D4AD"/>
<rect x="1" y="1" width="43" height="43" rx="10" stroke="#62D4AD" stroke-width="2"/>
</svg>
